<svg width="800" height="400" xmlns="http://www.w3.org/2000/svg">
  <style>
    .robot { fill: #795548; stroke: #5D4037; stroke-width: 2; }
    .task { fill: #2196F3; stroke: #0D47A1; stroke-width: 2; }
    .ai { fill: #9C27B0; stroke: #7B1FA2; stroke-width: 2; }
    .env { fill: #4CAF50; stroke: #388E3C; stroke-width: 2; }
    .text { font-family: Arial, sans-serif; font-size: 14px; fill: white; text-anchor: middle; }
    .label { font-family: Arial, sans-serif; font-size: 12px; fill: #333; text-anchor: middle; }
  </style>

  <!-- Environment -->
  <rect class="env" x="50" y="50" width="700" height="300" rx="20" ry="20" fill-opacity="0.1" stroke-width="3"/>
  <text class="label" x="400" y="370">Real-World Environment</text>

  <!-- Robot -->
  <rect class="robot" x="350" y="200" width="100" height="80" rx="10" ry="10"/>
  <text class="text" x="400" y="240">Capstone</text>
  <text class="text" x="400" y="260">Robot</text>

  <!-- Tasks -->
  <rect class="task" x="100" y="100" width="120" height="60" rx="10" ry="10"/>
  <text class="text" x="160" y="135">ROS 2</text>

  <rect class="task" x="250" y="100" width="120" height="60" rx="10" ry="10"/>
  <text class="text" x="310" y="125">Sim-</text>
  <text class="text" x="310" y="145">ulation</text>

  <rect class="task" x="400" y="100" width="120" height="60" rx="10" ry="10"/>
  <text class="text" x="460" y="125">Isaac</text>
  <text class="text" x="460" y="145">AI</text>

  <rect class="task" x="550" y="100" width="120" height="60" rx="10" ry="10"/>
  <text class="text" x="610" y="125">VLA</text>
  <text class="text" x="610" y="145">Systems</text>

  <!-- AI Brain -->
  <circle class="ai" cx="400" cy="150" r="40"/>
  <text class="text" x="400" y="155">AI</text>
  <text class="text" x="400" y="170">Brain</text>

  <!-- Connections -->
  <line x1="160" y1="100" x2="400" y2="190" stroke="#000" stroke-width="2" marker-end="url(#arrowhead)"/>
  <line x1="310" y1="100" x2="400" y2="190" stroke="#000" stroke-width="2" marker-end="url(#arrowhead)"/>
  <line x1="460" y1="100" x2="400" y2="190" stroke="#000" stroke-width="2" marker-end="url(#arrowhead)"/>
  <line x1="610" y1="100" x2="400" y2="190" stroke="#000" stroke-width="2" marker-end="url(#arrowhead)"/>
  <line x1="400" y1="190" x2="400" y2="200" stroke="#000" stroke-width="2" marker-end="url(#arrowhead)"/>

  <!-- Arrowhead definition -->
  <defs>
    <marker id="arrowhead" markerWidth="10" markerHeight="7" refX="9" refY="3.5" orient="auto">
      <polygon points="0 0, 10 3.5, 0 7" fill="#000" />
    </marker>
  </defs>

  <!-- Labels -->
  <text class="label" x="400" y="40">Capstone Project: Integrated Robotics System</text>
  <text class="label" x="400" y="320">Physical Robot Execution</text>
</svg>